<svg viewBox="0 0 1024 1024" xmlns="http://www.w3.org/2000/svg"><path d="M360.896 183.968l-90.912-88.096s-14.208-17.472 9.824-37.248c24.16-19.648 25.376-10.912 33.504-5.472s135.2 130.816 135.2 130.816zm301.952 3.264l90.912-88.096s14.208-17.472-9.824-37.248c-24.032-19.648-25.376-10.912-33.504-5.472s-135.2 130.816-135.2 130.816zM1004 350.336c-3.264-137.984-123.168-164.192-123.168-164.192s-614.336-4.96-742.496 0C10.176 222.304 20 350.336 20 350.336s1.696 274.272-.128 413.12c13.824 138.848 120.864 160.928 120.864 160.928s42.72.864 73.92.864c3.264 8.992 5.696 52.544 54.24 52.544 48.416 0 54.24-52.544 54.24-52.544s354.88-1.696 384.352-1.696c1.696 14.816 8.992 54.976 57.536 54.24 48.416-.864 51.712-57.536 51.712-57.536s16.384-1.696 65.664 0C997.344 898.88 1004 764.192 1004 764.192s-1.568-275.872 0-413.856zm-98.912 439.232c0 21.728-17.248 39.456-38.464 39.456H167.2c-21.248 0-38.464-17.6-38.464-39.456V326.336c0-21.728 17.248-39.456 38.464-39.456h699.424c21.248 0 38.464 17.6 38.464 39.456zM202.4 457.152l205.344-39.456 15.52 77.184-203.648 39.456zm638.976 0l-205.344-39.456-15.648 77.184 203.776 39.456zm-418.08 191.392s45.152 81.312 95.264-26.336c48.416 105.088 101.824 27.904 101.824 27.904l30.336 19.776s-56.672 91.136-131.424 22.208c-63.232 68.928-129.728-21.952-129.728-21.952z"/></svg>