<svg viewBox="0 0 1141 1024" xmlns="http://www.w3.org/2000/svg"><path d="M916.48 518.144q27.648 21.504 38.912 51.712t9.216 62.976-14.336 65.536-31.744 59.392q-34.816 48.128-78.848 81.92t-91.136 56.32-94.72 35.328-89.6 18.944-75.264 7.68-51.712 1.536-49.152-2.56-68.096-10.24-78.336-21.504-79.872-36.352-74.24-55.296-59.904-78.848q-16.384-29.696-22.016-63.488t-5.632-86.016q0-22.528 7.68-51.2t27.136-63.488 53.248-75.776 86.016-90.112q51.2-48.128 105.984-85.504t117.248-57.856q28.672-10.24 63.488-11.264t57.344 11.264q10.24 11.264 19.456 23.04t12.288 29.184q3.072 14.336 0.512 27.648t-5.632 26.624-5.12 25.6 2.048 22.528q17.408 2.048 33.792-1.536t31.744-9.216 31.232-11.776 33.28-9.216q27.648-5.12 54.784-4.608t49.152 7.68 36.352 22.016 17.408 38.4q2.048 14.336-2.048 26.624t-8.704 23.04-7.168 22.016 1.536 23.552q3.072 7.168 14.848 13.312t27.136 12.288 32.256 13.312 29.184 16.384zM658.432 836.608q26.624-16.384 53.76-45.056t44.032-64 18.944-75.776-20.48-81.408q-19.456-33.792-47.616-57.344t-62.976-37.376-74.24-19.968-80.384-6.144q-78.848 0-139.776 16.384t-105.472 43.008-72.192 60.416-38.912 68.608q-11.264 33.792-6.656 67.072t20.992 62.976 42.496 53.248 57.856 37.888q58.368 25.6 119.296 32.256t116.224 0.512 100.864-21.504 74.24-33.792zM524.288 513.024q20.48 8.192 38.912 18.432t32.768 27.648q10.24 12.288 17.92 30.72t10.752 39.424 1.536 42.496-9.728 38.912q-8.192 18.432-19.968 37.376t-28.672 35.328-40.448 29.184-57.344 18.944q-61.44 11.264-117.76-11.264t-88.064-74.752q-12.288-39.936-13.312-70.656t16.384-66.56q13.312-27.648 40.448-51.712t62.464-38.912 75.264-17.408 78.848 12.8zM361.472 764.928q37.888 3.072 57.856-18.432t21.504-48.128-15.36-47.616-52.736-16.896q-27.648 3.072-43.008 23.552t-17.408 43.52 9.728 42.496 39.424 21.504zM780.288 6.144q74.752 0 139.776 19.968t113.664 57.856 76.288 92.16 27.648 122.88q0 33.792-16.384 50.688t-35.328 17.408-35.328-14.336-16.384-45.568q0-40.96-22.528-77.824t-59.392-64.512-84.48-43.52-96.768-15.872q-31.744 0-47.104-15.36t-14.336-34.304 18.944-34.304 51.712-15.36zM780.288 169.984q95.232 0 144.384 48.64t49.152 146.944q0 30.72-10.24 43.52t-22.528 11.264-22.528-14.848-10.24-35.84q0-60.416-34.816-96.256t-93.184-35.84q-19.456 0-28.672-10.752t-9.216-23.04 9.728-23.04 28.16-10.752z" /></svg>